<svg viewBox="0 0 18 18" xmlns="http://www.w3.org/2000/svg">
  <path
    d="M3.25 2C2.29 2 1.5 2.79 1.5 3.75V14.25C1.5 15.21 2.29 16 3.25 16H3.75C4.71 16 5.5 15.21 5.5 14.25V3.75C5.5 2.79 4.71 2 3.75 2H3.25ZM8.75 2C7.79 2 7 2.79 7 3.75V14.25C7 15.21 7.79 16 8.75 16H9.25C10.21 16 11 15.21 11 14.25V3.75C11 2.79 10.21 2 9.25 2H8.75ZM14.25 2C13.29 2 12.5 2.79 12.5 3.75V14.25C12.5 15.21 13.29 16 14.25 16H14.75C15.71 16 16.5 15.21 16.5 14.25V3.75C16.5 2.79 15.71 2 14.75 2H14.25Z"
    fill="black"
  />
</svg>
