<svg viewBox="0 0 18 18" xmlns="http://www.w3.org/2000/svg">
  <g>
    <path d="M9,1A0.75,0.75 0 0 0 8.25,1.75v14.5A0.75,0.75 0 0 0 9,17A0.75,0.75 0 0 0 9.75,16.25V1.75A0.75,0.75 0 0 0 9,1Z" fill="black"/>
    <path d="M7,2.25A0.75,0.75 0 0 0 6.46875,2.46875A0.75,0.75 0 0 0 6.46875,3.53125l2,2a0.750075,0.750075 0 0 0 1.0625,0l2,-2a0.75,0.75 0 0 0 -1.0625,-1.0625L9,3.9375L7.53125,2.46875A0.75,0.75 0 0 0 7,2.25Z" fill="black"/>
    <path d="M8.46875,12.46875l-2,2a0.75,0.75 0 0 0 0,1.0625A0.75,0.75 0 0 0 7.53125,15.53125L9,14.0625l1.46875,1.46875a0.75,0.75 0 0 0 1.0625,-1.0625l-2,-2A0.750075,0.750075 0 0 0 8.46875,12.46875Z" fill="black"/>
    <path d="M2.52734,4.65039A0.75,0.75 0 0 0 2.07227,5A0.75,0.75 0 0 0 2.3457,6.02539l12.5586,7.25a0.75,0.75 0 0 0 1.0234,-1.30078L3.0957,4.72461A0.75,0.75 0 0 0 2.52734,4.65039Z" fill="black"/>
    <path d="M4.60938,3.54297A0.75,0.75 0 0 0 4.08008,4.46289l0.53906,2.00586l-2.00977,0.53906A0.75,0.75 0 0 0 2.99805,8.45703l2.73242,-0.73242A0.750075,0.750075 0 0 0 6.25977,6.80664L5.5293,4.07422A0.75,0.75 0 0 0 4.60938,3.54297Z" fill="black"/>
    <path d="M15.00195,9.54297l-2.73242,0.73242A0.750075,0.750075 0 0 0 11.74023,11.19336l0.73047,2.73242A0.75,0.75 0 0 0 13.39063,14.45703A0.75,0.75 0 0 0 13.91992,13.53711l-0.53906,-2.00586l2.00977,-0.53906a0.75,0.75 0 0 0 -0.38868,-1.44922Z" fill="black"/>
    <path d="M15.47266,4.65039a0.75,0.75 0 0 0 -0.56836,0.07422L2.3457,11.97461A0.75,0.75 0 0 0 2.07227,13A0.75,0.75 0 0 0 3.0957,13.27539l12.5586,-7.25A0.75,0.75 0 0 0 15.47266,4.65039Z" fill="black"/>
    <path d="M2.99805,9.54297A0.75,0.75 0 0 0 2.08008,10.07422A0.75,0.75 0 0 0 2.60938,10.99219l2.00977,0.53906l-0.53906,2.00586a0.75,0.75 0 0 0 1.44922,0.38867L6.25977,11.19336A0.750075,0.750075 0 0 0 5.73047,10.27539Z" fill="black"/>
    <path d="M13.39063,3.54297A0.75,0.75 0 0 0 12.4707,4.07422l-0.73047,2.73242a0.750075,0.750075 0 0 0 0.5293,0.91797l2.73242,0.73242A0.75,0.75 0 0 0 15.91992,7.92578A0.75,0.75 0 0 0 15.39063,7.00781l-2.00781,-0.53906l0.53711,-2.00586A0.75,0.75 0 0 0 13.39063,3.54297Z" fill="black"/>
  </g>
</svg>
